<svg xmlns="http://www.w3.org/2000/svg" xmlns:xlink="http://www.w3.org/1999/xlink" version="1.1" width="256" height="256" viewBox="0 0 256 256" xml:space="preserve">
<g style="stroke: none; stroke-width: 0; stroke-dasharray: none; stroke-linecap: butt; stroke-linejoin: miter; stroke-miterlimit: 10; fill: none; fill-rule: nonzero; opacity: 1;" transform="translate(1.4065934065934016 1.4065934065934016) scale(2.81 2.81)">
	<circle cx="45" cy="45" r="45" style="stroke: none; stroke-width: 1; stroke-dasharray: none; stroke-linecap: butt; stroke-linejoin: miter; stroke-miterlimit: 10; fill: rgb(16,6,159); fill-rule: nonzero; opacity: 1;" transform="  matrix(1 0 0 1 0 0) "/>
	<path d="M 32.843 53.923 c -4.821 0 -8.311 -3.994 -8.311 -8.923 v -0.071 c 0 -4.929 3.526 -8.887 8.311 -8.887 c 2.878 0 5.036 1.259 7.051 3.131 l 2.843 -3.275 c -2.41 -2.302 -5.217 -3.922 -9.858 -3.922 C 25.251 31.975 19.89 37.84 19.89 45 v 0.073 c 0 7.231 5.468 12.952 12.808 12.952 c 4.714 0 7.592 -1.727 10.218 -4.461 l -2.843 -2.878 C 37.917 52.699 35.937 53.923 32.843 53.923 z" style="stroke: none; stroke-width: 1; stroke-dasharray: none; stroke-linecap: butt; stroke-linejoin: miter; stroke-miterlimit: 10; fill: rgb(249,249,249); fill-rule: nonzero; opacity: 1;" transform=" matrix(1 0 0 1 0 0) " stroke-linecap="round"/>
	<path d="M 70.11 50.612 c 0 -3.417 -2.051 -5.109 -5.002 -6.116 c 1.871 -0.971 3.599 -2.59 3.599 -5.612 v -0.071 c 0 -1.692 -0.575 -3.058 -1.692 -4.173 c -1.439 -1.439 -3.705 -2.231 -6.584 -2.231 H 49.134 v 25.185 h 11.657 c 5.612 0 9.319 -2.41 9.319 -6.907 L 70.11 50.612 L 70.11 50.612 z M 53.489 36.328 h 6.368 c 2.843 0 4.426 1.224 4.426 3.202 v 0.073 c 0 2.302 -1.907 3.417 -4.75 3.417 h -6.045 L 53.489 36.328 L 53.489 36.328 z M 65.685 50.216 c 0 2.266 -1.834 3.455 -4.858 3.455 h -7.34 v -6.907 h 7.016 c 3.49 0 5.182 1.259 5.182 3.382 V 50.216 z" style="stroke: none; stroke-width: 1; stroke-dasharray: none; stroke-linecap: butt; stroke-linejoin: miter; stroke-miterlimit: 10; fill: rgb(167,169,172); fill-rule: nonzero; opacity: 1;" transform=" matrix(1 0 0 1 0 0) " stroke-linecap="round"/>
</g>
</svg>
